<?xml version="1.0" standalone="no"?>
<!DOCTYPE svg PUBLIC "-//W3C//DTD SVG 20010904//EN"
 "http://www.w3.org/TR/2001/REC-SVG-20010904/DTD/svg10.dtd">
<svg version="1.0" xmlns="http://www.w3.org/2000/svg"
 width="2000.000000pt" height="1500.000000pt" viewBox="0 0 2000.000000 1500.000000"
 preserveAspectRatio="xMidYMid meet">

<g transform="translate(0.000000,1500.000000) scale(0.100000,-0.100000)"
fill="#000000" stroke="none">
<path d="M9575 11803 c-491 -31 -1015 -152 -1445 -334 -259 -109 -600 -297
-600 -331 0 -11 -38 -43 -107 -89 -386 -258 -763 -604 -1020 -934 -220 -282
-422 -632 -561 -970 -87 -212 -169 -475 -151 -485 8 -5 2 -47 -19 -141 -165
-728 -159 -1386 17 -1991 40 -135 108 -317 155 -418 22 -47 25 -50 20 -20 -11
55 -10 65 5 65 7 0 24 -29 37 -65 24 -64 90 -209 204 -446 36 -74 76 -139 103
-170 25 -27 47 -47 50 -44 2 3 -22 61 -54 130 -216 462 -359 964 -400 1401
-13 141 -8 186 10 94 23 -120 51 -229 61 -239 8 -8 9 117 4 429 -6 381 -4 455
10 550 9 61 23 131 31 155 l15 45 -5 -50 c-40 -415 -28 -714 41 -1067 23 -117
57 -248 72 -272 3 -5 9 -1 14 10 5 11 6 -1 2 -30 -5 -45 -4 -49 10 -37 9 8 18
12 20 10 2 -2 49 -112 106 -244 56 -132 124 -285 150 -340 100 -208 239 -410
429 -623 56 -62 101 -116 101 -120 0 -4 22 -34 50 -67 41 -49 50 -67 50 -100
1 -102 314 -524 531 -715 41 -36 119 -110 174 -166 286 -288 703 -541 1180
-716 354 -130 514 -170 882 -218 126 -16 271 -36 323 -46 171 -30 422 -11 835
61 259 46 442 91 642 159 942 320 1761 976 2273 1820 325 536 523 1134 596
1801 24 220 24 677 0 900 -36 333 -103 648 -201 940 -55 166 -175 459 -186
453 -15 -8 -45 37 -123 187 -450 872 -1171 1551 -2034 1915 -82 35 -105 41
-112 30 -6 -10 -28 -6 -107 23 -248 91 -523 167 -768 212 -171 31 -564 82
-740 95 -128 9 -447 11 -570 3z m670 -1013 c12 -20 -5 -27 -40 -16 -19 6 -35
14 -35 18 0 12 68 10 75 -2z m-196 -7 c-11 -3 -15 -11 -12 -23 5 -18 7 -18 26
-5 28 20 52 19 152 -6 93 -24 111 -21 125 16 11 28 50 35 69 11 22 -26 151
-74 151 -57 0 6 -10 11 -22 11 -13 0 -41 9 -63 20 l-40 20 45 -5 c25 -3 55
-12 67 -20 22 -15 57 -10 47 6 -3 5 13 9 36 9 27 0 43 -5 46 -15 7 -17 44 -21
44 -5 0 6 18 10 40 10 22 0 40 -5 40 -11 0 -5 15 -24 33 -41 31 -29 31 -30 7
-24 -77 20 -160 19 -160 -2 0 -4 46 -18 103 -31 237 -54 485 -134 696 -223
123 -52 432 -214 462 -241 13 -12 35 -29 50 -37 90 -52 108 -65 123 -91 33
-56 67 -88 101 -95 26 -5 45 -21 93 -82 33 -43 91 -111 128 -152 100 -108 164
-187 204 -250 19 -30 42 -62 50 -71 15 -15 46 -69 46 -79 1 -3 6 -15 13 -27 8
-17 9 -23 0 -23 -6 0 3 -17 21 -37 45 -51 83 -144 46 -114 -11 9 -15 8 -20 -5
-10 -25 2 -34 43 -34 48 0 58 -10 30 -31 -17 -13 -20 -22 -15 -45 l8 -29 17
24 c19 25 41 21 41 -8 0 -9 -6 -23 -12 -30 -11 -11 -10 -12 0 -7 7 5 23 5 36
2 19 -5 23 -12 22 -43 -1 -21 4 -51 12 -66 15 -33 12 -73 -6 -69 -9 2 -10 -3
-3 -15 5 -10 17 -49 26 -88 22 -88 49 -142 75 -150 23 -7 26 -21 6 -28 -9 -4
-12 -14 -9 -29 9 -40 55 -128 71 -137 14 -8 14 -15 -3 -70 l-18 -61 23 -50
c13 -28 32 -57 41 -66 10 -9 17 -20 14 -24 -2 -4 -8 -32 -13 -62 -8 -51 -7
-55 10 -50 22 5 61 -26 50 -42 -22 -35 -27 -83 -13 -131 12 -40 14 -97 11
-275 -2 -124 -4 -294 -4 -378 -1 -128 -3 -152 -16 -152 -8 -1 -22 -16 -31 -34
-13 -28 -13 -37 -2 -51 21 -29 13 -106 -14 -136 -22 -24 -36 -75 -48 -179 -7
-58 -38 -109 -74 -123 -26 -10 -29 -16 -33 -68 -3 -44 -17 -83 -59 -168 -30
-61 -59 -109 -65 -107 -14 5 -44 -56 -44 -90 0 -20 -4 -24 -19 -19 -15 5 -21
0 -26 -23 -3 -16 -38 -64 -77 -108 -61 -68 -84 -105 -130 -209 -5 -12 -45 -61
-89 -110 -44 -50 -89 -106 -99 -125 -11 -19 -19 -29 -20 -22 0 6 -10 12 -22
12 -23 -1 -31 -13 -90 -133 -21 -42 -26 -47 -53 -45 -28 3 -30 1 -27 -31 1
-19 5 -37 7 -40 11 -10 83 21 108 47 15 15 53 66 84 112 32 46 69 90 83 99
l25 16 -18 -29 c-29 -43 -7 -54 34 -17 32 29 33 30 11 31 -22 0 -22 0 -4 28
10 15 22 35 27 45 13 25 31 18 27 -10 -4 -34 20 -28 46 12 12 19 41 49 64 66
l43 30 17 -21 c25 -31 22 -49 -9 -61 -40 -15 -71 -47 -98 -99 -28 -54 -69 -94
-110 -107 -23 -8 -31 -17 -36 -44 -4 -19 -7 -31 -8 -26 0 4 -14 1 -29 -7 -31
-16 -82 -83 -82 -108 0 -23 -24 -39 -70 -45 -42 -6 -47 -12 -28 -31 9 -9 4
-12 -23 -12 -41 0 -66 -15 -136 -83 -40 -39 -55 -48 -65 -39 -11 8 -20 4 -40
-22 -14 -18 -59 -50 -99 -71 -41 -21 -68 -40 -61 -43 30 -10 87 13 171 68 50
33 103 62 117 64 15 3 54 31 88 63 33 33 113 95 176 140 63 44 135 102 160
127 39 41 42 46 22 46 -24 0 -30 16 -9 23 6 2 28 0 46 -4 30 -7 37 -4 50 14 9
12 83 103 166 202 154 183 234 288 294 383 18 28 35 52 37 52 2 0 -9 -28 -23
-62 -15 -36 -49 -87 -78 -119 -29 -31 -79 -104 -113 -162 -80 -136 -131 -200
-187 -232 -35 -21 -46 -34 -51 -60 -3 -19 -30 -66 -59 -105 -29 -39 -58 -84
-65 -100 -7 -17 -18 -30 -24 -31 -6 -1 -22 -2 -36 -2 -19 -2 -26 -9 -31 -35
-9 -45 -29 -64 -112 -108 -82 -42 -117 -70 -117 -94 0 -11 -48 -49 -127 -103
-147 -97 -163 -106 -333 -177 -69 -29 -145 -63 -170 -75 -25 -12 -64 -26 -88
-30 -25 -4 -46 -14 -52 -25 -22 -41 -71 -63 -169 -77 -102 -14 -199 -40 -278
-74 -31 -14 -74 -22 -123 -24 -82 -4 -219 -31 -235 -47 -7 -7 9 -9 49 -5 l60
6 -32 -19 c-31 -19 -92 -19 -92 1 0 4 -7 15 -16 23 -17 17 -64 22 -64 7 0 -5
-2 -15 -5 -23 -4 -10 4 -13 35 -10 33 3 39 1 34 -11 -10 -26 -70 -40 -147 -33
-40 3 -79 6 -87 6 -16 1 -136 -16 -182 -24 -20 -4 -28 -1 -32 12 -5 14 -18 17
-87 15 -44 0 -83 -3 -85 -6 -3 -2 25 -13 61 -23 67 -19 76 -27 49 -42 -10 -6
-29 -2 -54 10 -31 16 -65 20 -192 22 -125 3 -190 10 -353 40 -110 21 -235 40
-277 43 -66 5 -78 9 -78 23 0 24 -63 61 -81 49 -8 -5 -39 -6 -69 -3 -41 5 -59
13 -73 31 -25 31 -58 47 -143 67 -90 22 -129 46 -144 89 -12 30 -18 35 -70 45
-42 9 -83 30 -156 78 -116 78 -113 75 -96 81 7 3 -13 18 -45 34 -44 22 -57 34
-55 48 2 12 -4 22 -17 26 -11 3 -44 32 -73 63 -102 109 -134 138 -180 159 -30
15 -75 54 -134 119 -49 53 -102 105 -119 115 -18 11 -24 19 -14 19 24 0 16 38
-12 57 -13 9 -39 30 -58 45 -18 16 -44 34 -58 39 -21 8 -23 13 -17 44 l6 36
-36 -3 c-32 -2 -36 -5 -36 -30 0 -50 37 -104 114 -167 68 -56 116 -108 116
-126 0 -4 -9 3 -19 16 -15 18 -22 21 -31 13 -9 -9 -9 -18 0 -35 17 -33 51 -69
64 -69 6 0 3 5 -6 11 -18 10 -25 39 -10 39 15 -1 85 -55 83 -65 -1 -5 -13 -9
-27 -8 -32 2 -30 -11 6 -37 28 -20 105 -151 80 -135 -6 4 -20 -1 -32 -11 -19
-18 -20 -18 -34 1 -8 10 -14 26 -14 36 0 19 -34 57 -103 112 -35 29 -50 49
-60 85 -11 38 -19 48 -39 50 -19 2 -27 10 -32 32 -7 36 -78 110 -106 110 -25
0 -40 29 -40 74 0 20 -4 36 -10 36 -5 0 -10 -4 -10 -10 0 -5 -5 -10 -11 -10
-6 0 -8 11 -4 28 8 39 -8 76 -62 146 -41 52 -45 60 -30 70 14 11 14 13 -3 24
-11 6 -38 51 -61 98 -32 67 -44 83 -51 70 -12 -22 6 -85 54 -180 22 -43 41
-90 42 -103 2 -14 19 -47 39 -73 61 -82 136 -231 132 -263 -6 -53 1 -57 -143
72 -101 91 -156 162 -147 192 4 12 12 18 21 15 10 -4 14 3 14 28 0 42 -8 66
-23 66 -6 0 -19 7 -29 16 -14 14 -21 14 -32 4 -13 -10 -16 -7 -22 14 -3 14
-12 30 -19 36 -14 11 -43 94 -130 373 -25 81 -62 182 -81 225 -33 72 -35 84
-39 202 -2 75 -10 151 -20 190 -12 44 -18 110 -20 205 -2 139 -9 195 -26 195
-5 0 -9 -26 -9 -57 0 -56 -12 -94 -25 -81 -16 15 -16 214 -1 369 9 92 16 192
16 223 0 41 4 56 14 56 9 0 15 21 20 71 4 39 5 73 2 77 -8 7 -56 -103 -69
-161 -8 -29 -18 -49 -29 -53 -16 -5 -18 -21 -19 -142 -1 -160 -7 -188 -36
-185 -23 3 -26 -6 -38 -90 -4 -26 -11 -49 -15 -52 -22 -14 -33 107 -37 427 -4
316 -3 338 14 355 10 10 25 30 35 43 15 24 16 22 11 -55 -4 -70 6 -119 21
-105 2 3 12 64 21 135 96 750 339 1350 749 1842 33 40 63 68 67 62 3 -6 4 -34
2 -62 l-4 -52 31 35 c17 19 75 89 128 155 171 215 225 275 294 331 85 70 109
66 43 -7 -28 -30 -41 -47 -30 -38 34 28 78 47 127 54 26 4 55 13 65 21 17 12
16 13 -9 14 -15 0 -29 3 -32 8 -8 13 109 109 142 117 18 4 52 22 76 40 76 58
96 64 54 17 -44 -48 -47 -62 -15 -55 49 10 68 26 65 52 -3 25 -1 26 47 23 48
-3 51 -2 67 30 9 18 19 41 22 50 3 11 14 17 28 17 13 -1 55 13 93 30 39 18
149 62 245 98 148 56 191 67 286 78 124 15 226 50 189 65 -18 8 -17 9 6 9 17
1 32 -7 42 -21 14 -22 16 -22 33 -6 14 12 52 20 139 27 66 6 125 11 131 11 7
0 14 9 17 20 6 21 37 26 108 14 30 -5 36 -10 31 -26 -4 -16 -1 -19 14 -15 10
3 32 8 47 11 19 5 27 12 23 21 -6 16 12 22 64 22 19 0 28 -2 19 -4z m-1629
-371 c0 -5 -6 -16 -13 -25 -11 -16 -14 -16 -32 -3 -20 14 -20 15 5 25 32 12
40 13 40 3z m-897 -5294 c14 -24 39 -56 56 -72 26 -25 31 -27 37 -13 14 37 26
16 19 -34 l-7 -51 78 -80 79 -80 -60 37 c-137 85 -295 223 -265 233 5 2 32
-12 59 -32 61 -45 75 -46 34 -3 -31 32 -44 56 -57 110 -9 38 -2 34 27 -15z
m381 -569 c34 -11 40 -11 52 5 11 16 22 9 131 -85 65 -56 150 -123 190 -149
79 -52 410 -221 624 -319 115 -53 135 -66 135 -84 -1 -19 5 -22 41 -25 24 -2
44 -9 47 -18 11 -28 -91 -17 -182 21 -46 19 -105 37 -130 41 -27 4 -60 17 -76
31 -16 14 -107 63 -202 109 -95 46 -185 97 -201 112 -15 15 -39 32 -53 38 -14
6 -64 41 -112 76 -47 36 -101 71 -118 78 -17 7 -27 16 -21 20 8 4 6 12 -3 26
-12 15 -17 17 -27 7 -22 -22 -46 -15 -53 15 -7 30 -25 54 -76 96 -19 16 -28
26 -20 23 8 -3 32 -11 54 -18z"/>
<path d="M12935 8826 c21 -32 27 -33 16 -4 -4 12 -14 24 -20 26 -8 3 -7 -5 4
-22z"/>
<path d="M11200 7500 l0 -510 135 0 135 0 0 510 0 510 -135 0 -135 0 0 -510z"/>
<path d="M11540 7500 l0 -510 135 0 135 0 0 510 0 510 -135 0 -135 0 0 -510z"/>
<path d="M7938 7856 c-96 -26 -150 -86 -156 -174 -7 -109 53 -169 227 -227
118 -39 161 -71 161 -121 0 -39 -26 -80 -59 -94 -38 -16 -155 -9 -196 11 -25
12 -31 22 -38 67 l-9 52 -49 0 -49 0 0 -80 0 -79 43 -24 c68 -40 116 -51 212
-52 103 0 151 14 202 58 65 57 81 143 42 223 -26 55 -86 95 -192 130 -104 34
-152 60 -166 91 -18 40 -13 63 23 99 31 31 39 34 95 34 34 0 77 -6 96 -14 28
-12 35 -21 40 -53 11 -62 11 -63 60 -63 l45 0 0 78 0 78 -38 22 c-85 47 -202
63 -294 38z"/>
<path d="M8360 7821 c0 -37 1 -39 40 -45 l40 -6 0 -270 0 -270 -40 -6 c-39 -6
-40 -8 -40 -45 l0 -39 140 0 140 0 0 39 c0 37 -1 39 -40 45 l-41 6 3 108 3
107 158 3 157 3 0 -111 0 -110 -40 -6 c-39 -6 -40 -8 -40 -45 l0 -39 140 0
140 0 0 39 c0 37 -1 39 -40 45 l-40 6 0 270 0 270 40 6 c39 6 40 8 40 45 l0
39 -140 0 -140 0 0 -39 c0 -37 1 -39 40 -45 l40 -6 0 -115 0 -116 -157 3 -158
3 -3 112 -3 113 41 6 c39 6 40 8 40 45 l0 39 -140 0 -140 0 0 -39z"/>
<path d="M9150 7821 c0 -37 1 -39 40 -45 l40 -6 0 -270 0 -270 -40 -6 c-39 -6
-40 -8 -40 -45 l0 -39 280 0 281 0 -3 93 -3 92 -45 0 -45 0 -5 -45 -5 -45
-127 -3 -128 -3 0 116 0 115 125 0 125 0 0 50 0 50 -125 0 -125 0 0 100 0 100
119 0 119 0 7 -40 c7 -40 7 -40 51 -40 l44 0 0 90 0 90 -270 0 -270 0 0 -39z"/>
<path d="M9792 7824 c3 -35 6 -39 41 -47 l37 -9 0 -268 0 -268 -37 -9 c-35 -8
-38 -12 -41 -46 l-3 -37 140 0 141 0 0 40 c0 33 -3 40 -19 40 -48 0 -51 6 -51
116 l0 104 69 0 68 0 63 -150 63 -150 73 0 74 0 0 39 c0 34 -3 39 -27 44 -24
5 -34 20 -76 114 -48 109 -54 133 -38 133 5 0 24 12 42 27 84 71 93 217 17
290 -63 61 -91 67 -326 71 l-213 4 3 -38z m430 -93 c29 -26 33 -35 33 -81 0
-46 -4 -55 -33 -81 -31 -28 -36 -29 -127 -29 l-95 0 0 110 0 110 95 0 c91 0
96 -1 127 -29z"/>
<path d="M10500 7765 l0 -95 49 0 50 0 3 43 3 42 123 3 123 3 -180 -269 c-162
-241 -181 -273 -181 -310 l0 -42 259 0 259 0 6 31 c3 17 6 60 6 95 l0 64 -50
0 -50 0 0 -45 0 -45 -140 0 -140 0 180 267 c165 244 180 270 180 310 l0 43
-250 0 -250 0 0 -95z"/>
<path d="M7226 5451 c-17 -6 -15 -10 14 -34 40 -34 64 -36 54 -4 -13 45 -29
53 -68 38z"/>
</g>
</svg>
