<?xml version="1.0" standalone="no"?>
<!DOCTYPE svg PUBLIC "-//W3C//DTD SVG 20010904//EN"
 "http://www.w3.org/TR/2001/REC-SVG-20010904/DTD/svg10.dtd">
<svg version="1.0" xmlns="http://www.w3.org/2000/svg"
 width="2000.000000pt" height="2250.000000pt" viewBox="0 0 2000.000000 2250.000000"
 preserveAspectRatio="xMidYMid meet">

<g transform="translate(0.000000,2250.000000) scale(0.100000,-0.100000)"
fill="#000000" stroke="none">
<path d="M9330 21389 c-344 -10 -667 -36 -975 -79 -44 -6 -109 -15 -145 -20
-36 -5 -94 -14 -130 -20 -36 -6 -90 -15 -120 -19 -30 -5 -66 -11 -80 -14 -14
-3 -50 -10 -80 -16 -497 -96 -946 -218 -1444 -391 -115 -40 -426 -162 -513
-201 -46 -20 -89 -39 -193 -85 -109 -48 -508 -248 -624 -313 -60 -33 -110 -61
-112 -61 -2 0 -241 -145 -311 -190 -46 -28 -53 -37 -53 -65 0 -42 -20 -59
-220 -190 -159 -104 -381 -260 -505 -355 -33 -25 -100 -77 -150 -115 -512
-394 -1114 -979 -1516 -1475 -462 -569 -867 -1222 -1189 -1915 -162 -349 -333
-798 -430 -1125 -12 -41 -26 -86 -30 -100 -4 -14 -13 -45 -20 -70 -7 -25 -16
-55 -21 -68 -16 -41 -11 -72 11 -72 26 0 26 -16 -5 -136 -26 -100 -40 -157
-54 -229 -5 -22 -19 -87 -31 -145 -12 -58 -26 -125 -31 -150 -4 -25 -17 -94
-29 -155 -69 -366 -131 -883 -146 -1220 -4 -77 -11 -150 -15 -163 -12 -32 -11
-651 1 -704 5 -24 14 -123 20 -222 22 -365 87 -820 165 -1151 39 -167 67 -283
74 -305 5 -14 14 -43 20 -65 30 -111 142 -457 160 -500 5 -11 19 -47 31 -80
31 -86 43 -115 70 -177 5 -13 39 -93 75 -178 88 -205 108 -223 59 -52 -20 70
-13 97 25 97 19 0 31 -22 87 -165 80 -202 75 -190 195 -438 55 -112 99 -205
99 -207 0 -3 11 -28 24 -57 13 -29 38 -87 56 -128 94 -218 214 -428 305 -532
37 -42 113 -103 120 -96 3 2 -31 78 -75 167 -44 89 -80 163 -80 165 0 2 -18
44 -41 93 -22 48 -46 102 -54 118 -7 17 -22 50 -33 75 -11 25 -34 81 -52 125
-17 44 -38 94 -45 110 -19 44 -88 225 -128 335 -86 237 -177 525 -248 785 -6
22 -15 51 -19 65 -5 14 -23 84 -40 155 -29 123 -36 152 -60 260 -25 114 -29
132 -35 165 -3 19 -11 60 -16 90 -10 55 -20 112 -39 233 -11 63 -23 155 -41
307 -21 181 -39 454 -29 464 6 6 12 2 16 -10 3 -10 10 -30 14 -44 9 -28 10
-34 46 -240 14 -80 32 -170 41 -200 21 -74 53 -150 64 -150 13 0 11 590 -2
795 -6 94 -11 379 -12 635 -1 506 6 614 58 900 18 98 70 290 78 290 10 0 7
-44 -13 -200 -54 -427 -59 -1128 -10 -1590 18 -168 40 -311 91 -610 17 -102
62 -317 78 -380 40 -150 56 -204 88 -280 l18 -45 5 45 c6 51 20 58 34 17 7
-19 6 -40 -3 -70 -23 -77 -25 -97 -8 -97 8 0 17 7 21 15 10 28 42 16 60 -22
10 -21 72 -164 137 -318 66 -154 124 -289 129 -300 5 -11 30 -69 56 -130 25
-60 55 -129 65 -152 10 -24 29 -64 40 -90 12 -27 30 -68 41 -93 275 -616 627
-1132 1128 -1655 53 -55 106 -121 119 -147 13 -26 53 -83 90 -128 36 -45 85
-109 108 -141 42 -59 42 -60 36 -124 -7 -75 -7 -75 125 -295 308 -513 707
-991 1147 -1370 60 -52 125 -113 144 -135 57 -65 290 -296 371 -367 287 -252
699 -544 1058 -749 17 -11 48 -28 67 -39 19 -11 52 -30 73 -42 203 -117 732
-362 1007 -467 33 -13 75 -30 94 -38 18 -8 45 -19 60 -23 14 -5 64 -22 111
-40 47 -17 110 -40 140 -51 30 -12 69 -24 85 -29 17 -4 77 -24 135 -43 195
-66 485 -145 735 -200 215 -48 459 -85 905 -137 173 -21 372 -49 425 -60 48
-10 138 -26 220 -39 195 -31 613 -19 1015 28 163 19 396 54 543 81 115 21 165
29 339 59 356 62 754 155 1033 242 104 32 403 131 420 139 11 5 40 16 65 24
56 18 386 149 458 182 29 13 55 24 57 24 18 0 490 229 659 319 95 51 119 64
201 111 19 11 51 29 70 40 88 50 103 59 150 87 954 571 1844 1348 2541 2218
335 418 654 900 903 1365 61 114 257 509 298 600 130 288 297 719 363 935 10
33 29 94 42 135 14 41 31 95 38 120 7 25 16 56 20 70 4 14 13 45 20 70 7 25
16 56 20 70 8 23 77 306 101 410 68 298 105 507 159 895 8 62 25 218 45 430
67 693 45 1495 -60 2240 -44 307 -82 511 -157 845 -5 25 -13 61 -18 80 -12 57
-89 345 -103 392 -8 24 -20 63 -27 88 -7 25 -21 70 -30 100 -10 30 -30 91 -43
135 -83 263 -231 647 -361 930 -61 133 -59 130 -94 133 -21 2 -38 13 -50 30
-11 15 -80 146 -154 292 -387 761 -814 1391 -1378 2035 -135 155 -612 632
-760 761 -496 433 -950 756 -1515 1081 -197 113 -551 291 -775 390 -74 33 -97
42 -150 63 -30 12 -68 27 -85 35 -83 35 -135 53 -135 45 0 -5 5 -12 10 -15 6
-3 10 -13 10 -22 0 -21 -44 -14 -150 26 -435 164 -992 332 -1390 420 -30 7
-73 16 -95 21 -22 5 -60 13 -85 19 -120 27 -407 79 -560 101 -41 6 -102 15
-135 20 -33 5 -105 14 -160 20 -114 12 -131 14 -275 35 -587 84 -1108 112
-1740 94z m1224 -2248 c12 -22 13 -32 3 -45 -11 -15 -16 -15 -69 4 -32 11 -67
20 -78 20 -13 0 -20 7 -20 18 0 29 8 32 81 32 65 0 69 -1 83 -29z m-512 -2
c14 -8 23 -8 31 0 16 16 80 14 74 -1 -2 -7 -18 -12 -36 -12 -30 2 -41 -9 -21
-21 6 -3 10 -19 10 -36 0 -35 3 -35 39 -8 61 45 136 45 296 3 178 -48 232 -57
271 -44 23 8 39 21 46 38 35 91 36 92 73 92 26 0 49 -10 81 -34 54 -42 212
-119 278 -136 43 -12 49 -12 58 4 5 9 27 24 49 32 42 17 46 23 27 42 -22 22 7
29 79 19 104 -13 107 -14 125 -47 15 -26 23 -31 50 -28 28 2 34 8 36 31 3 26
5 27 60 26 94 -2 113 -9 126 -49 10 -31 43 -63 116 -111 45 -30 12 -33 -83 -9
-118 30 -241 33 -281 7 -15 -11 -24 -23 -20 -27 5 -5 63 -20 129 -35 191 -42
541 -134 710 -185 39 -12 84 -25 100 -30 70 -18 341 -113 570 -198 186 -69
615 -260 645 -287 8 -7 126 -70 262 -138 240 -121 361 -195 392 -239 8 -12 30
-26 48 -33 18 -6 86 -45 150 -88 86 -56 127 -89 150 -123 129 -186 163 -216
248 -222 58 -4 59 -5 93 -56 86 -130 200 -265 462 -551 185 -202 305 -355 395
-508 25 -41 52 -78 61 -80 9 -2 37 -42 64 -88 27 -46 61 -96 76 -111 23 -24
25 -29 12 -36 -13 -8 -13 -12 -2 -30 8 -12 17 -22 21 -22 18 0 6 -28 -13 -33
-19 -5 -15 -13 45 -81 66 -77 96 -130 123 -218 18 -62 8 -79 -23 -42 -20 25
-25 27 -34 14 -6 -8 -9 -31 -8 -50 l3 -35 73 -2 c76 -2 122 -20 122 -47 0 -8
-14 -17 -31 -21 -44 -10 -55 -40 -38 -114 10 -48 16 -58 26 -49 7 6 13 15 13
20 0 19 42 68 57 68 25 0 53 -30 53 -58 0 -13 -11 -38 -25 -54 -32 -37 -27
-44 13 -21 29 17 31 17 76 -6 42 -22 62 -51 35 -51 -11 0 -8 -43 6 -87 6 -18
3 -23 -9 -23 -21 0 -20 -3 7 -44 39 -56 52 -118 37 -171 -11 -41 -30 -62 -30
-33 0 6 -2 9 -5 6 -3 -3 4 -32 14 -66 11 -33 27 -91 36 -129 42 -172 72 -257
108 -303 21 -27 83 -70 101 -70 24 0 15 -22 -14 -37 -33 -16 -39 -32 -27 -66
7 -21 7 -35 -1 -47 -8 -13 -4 -22 18 -43 15 -14 38 -52 50 -84 28 -71 64 -121
96 -133 13 -5 24 -15 24 -22 0 -7 -18 -69 -41 -138 l-42 -126 56 -116 c41 -85
66 -124 95 -149 37 -31 39 -35 26 -55 -8 -12 -19 -64 -25 -115 -6 -51 -15
-101 -20 -110 -14 -27 -12 -28 41 -22 43 5 54 2 85 -21 40 -31 44 -51 14 -82
-13 -14 -23 -41 -26 -71 -2 -26 -9 -60 -15 -75 -7 -19 -6 -41 6 -80 62 -219
70 -504 31 -1143 -16 -265 -15 -548 1 -647 6 -37 5 -38 -23 -38 -33 0 -57 -21
-68 -60 -4 -14 -16 -42 -28 -62 l-20 -37 28 -33 c27 -31 27 -35 21 -115 -5
-53 -3 -90 4 -103 10 -18 5 -25 -31 -58 -74 -66 -101 -143 -119 -337 -21 -218
-66 -308 -182 -364 l-62 -29 -2 -94 c-2 -113 -24 -182 -102 -331 -29 -56 -76
-150 -105 -209 -29 -59 -56 -108 -60 -108 -5 0 -17 10 -28 23 l-18 22 -1 -22
c0 -12 -13 -52 -30 -88 -22 -47 -30 -81 -30 -120 0 -59 -10 -67 -46 -40 -27
21 -28 20 -43 -30 -20 -66 -76 -146 -191 -270 -145 -157 -208 -254 -244 -373
-23 -81 -75 -155 -212 -302 -182 -197 -254 -293 -254 -337 0 -32 -34 -27 -38
5 -3 22 -7 23 -45 17 -23 -4 -42 -8 -43 -9 0 0 -8 -22 -18 -49 -10 -26 -38
-74 -62 -108 -49 -66 -104 -168 -104 -191 0 -8 -8 -22 -18 -31 -15 -14 -25
-15 -57 -6 -27 8 -45 8 -63 0 -21 -10 -23 -16 -18 -49 4 -20 9 -54 12 -74 5
-33 10 -38 33 -38 31 0 122 32 158 55 60 40 112 98 185 210 43 66 95 144 115
174 65 92 193 201 193 163 0 -4 -20 -32 -44 -61 -36 -44 -43 -58 -35 -73 5
-10 18 -18 29 -18 20 0 155 119 146 128 -3 2 -19 -1 -36 -8 -44 -18 -62 1 -33
32 12 13 37 57 56 99 35 77 58 99 83 78 11 -9 13 -25 8 -60 -5 -40 -4 -50 10
-55 21 -8 42 10 62 51 31 66 131 159 257 240 27 17 27 17 27 -7 0 -14 14 -42
30 -63 48 -61 36 -88 -49 -115 -73 -23 -139 -93 -209 -224 -77 -140 -133 -197
-222 -222 -33 -9 -66 -24 -74 -33 -8 -9 -16 -41 -18 -71 -3 -48 -6 -55 -22
-52 -38 7 -95 -32 -161 -109 -57 -66 -88 -124 -89 -164 -1 -45 -75 -87 -169
-94 -58 -5 -72 -9 -75 -23 -2 -12 6 -21 23 -28 39 -15 26 -36 -21 -32 -91 8
-194 -54 -341 -207 l-102 -106 -29 28 c-22 21 -31 24 -40 15 -7 -7 -12 -17
-12 -23 0 -29 -104 -109 -234 -180 -77 -41 -143 -75 -148 -75 -4 0 -8 -7 -8
-16 0 -15 9 -16 70 -11 88 7 139 33 340 167 160 108 203 130 247 130 22 0 57
27 164 127 94 90 187 164 308 248 275 190 363 259 450 351 82 87 97 110 61 99
-52 -16 -83 31 -35 53 19 9 41 8 95 -4 38 -9 76 -14 84 -11 8 3 42 43 77 89
54 72 243 303 259 318 3 3 78 91 166 195 277 327 435 538 568 758 25 43 56 87
67 98 l21 21 -7 -24 c-4 -12 -21 -52 -38 -88 -16 -36 -43 -96 -58 -134 -23
-55 -44 -84 -108 -146 -89 -87 -158 -185 -286 -406 -195 -333 -305 -465 -447
-532 l-77 -37 -1 -50 c0 -69 -31 -128 -137 -267 -50 -64 -109 -153 -132 -197
-44 -85 -69 -104 -109 -82 -27 14 -65 14 -80 -1 -7 -7 -12 -36 -12 -65 0 -100
-56 -153 -285 -268 -150 -75 -220 -138 -230 -207 -6 -41 -11 -47 -58 -72 -108
-55 -137 -72 -159 -93 -13 -11 -63 -48 -113 -82 -49 -33 -116 -79 -148 -102
-54 -38 -169 -99 -277 -147 -81 -36 -472 -202 -476 -202 -2 0 -68 -31 -147
-68 -79 -38 -157 -69 -175 -70 -32 -1 -87 -16 -129 -35 -14 -6 -23 -19 -23
-32 0 -17 -24 -38 -100 -88 -97 -65 -149 -83 -165 -57 -8 13 -58 13 -71 0 -5
-5 -54 -16 -109 -25 -237 -38 -497 -120 -615 -196 -42 -26 -49 -28 -85 -18
-52 15 -223 4 -358 -21 -165 -32 -277 -63 -277 -77 0 -20 48 -27 102 -14 61
14 118 14 118 1 0 -5 -8 -10 -18 -10 -10 0 -33 -13 -52 -30 -35 -30 -85 -40
-92 -18 -2 6 -21 11 -41 10 -34 -1 -39 2 -55 36 -21 45 -70 72 -129 72 -41 0
-43 -1 -43 -31 0 -17 -5 -39 -10 -50 -13 -23 -12 -23 65 -5 64 16 101 7 91
-21 -3 -8 -6 -20 -6 -26 0 -13 -27 -26 -103 -51 -33 -11 -86 -16 -176 -16
-108 0 -136 3 -175 21 -47 20 -63 20 -121 -6 -16 -7 -79 -16 -140 -20 -60 -4
-128 -10 -150 -15 -79 -17 -116 -19 -120 -7 -2 7 -6 24 -9 40 -7 31 -26 34
-61 11 -18 -12 -37 -14 -72 -10 -102 13 -268 17 -253 7 19 -14 187 -68 252
-82 61 -13 61 -31 0 -65 l-43 -24 -37 29 c-20 16 -50 32 -67 36 -16 3 -45 14
-63 22 -28 14 -45 14 -115 4 -101 -14 -276 -14 -388 -1 -193 23 -256 31 -299
40 -25 4 -79 13 -120 20 -78 12 -122 20 -255 46 -44 9 -105 20 -135 24 -30 5
-82 14 -115 20 -168 29 -269 40 -372 40 -62 0 -113 2 -113 4 0 3 5 17 10 31
14 38 0 57 -69 94 -34 18 -61 36 -61 42 0 15 -19 10 -49 -12 -24 -17 -38 -20
-77 -15 -27 3 -81 8 -120 12 -70 6 -71 7 -98 50 -47 74 -136 118 -311 154
-243 49 -323 109 -371 278 -2 7 -20 12 -41 12 -66 0 -176 32 -253 74 -30 16
-130 80 -221 143 -92 62 -172 113 -178 113 -19 0 -12 27 11 42 22 15 22 15
-17 28 -22 7 -51 21 -65 30 -52 36 -101 60 -126 60 -32 0 -39 19 -19 56 20 39
19 41 -13 47 -44 9 -141 88 -212 174 -167 201 -263 283 -403 348 -79 36 -137
91 -303 284 -126 148 -167 186 -230 217 -54 26 -59 38 -19 46 16 2 21 12 23
44 3 40 1 43 -45 70 -26 15 -70 49 -98 74 -60 56 -126 102 -178 123 -40 17
-47 40 -26 93 5 16 8 39 4 51 -6 25 -25 28 -110 16 l-47 -6 6 -61 c9 -76 50
-166 106 -229 23 -26 98 -93 165 -147 141 -115 245 -229 245 -269 0 -9 -18 2
-44 28 -71 70 -109 40 -66 -52 24 -51 105 -140 122 -135 21 7 20 28 -1 28 -25
0 -45 34 -37 66 8 31 17 30 53 -3 17 -16 56 -41 88 -58 65 -34 88 -67 63 -91
-12 -12 -26 -14 -57 -9 -52 9 -56 8 -56 -9 0 -8 23 -31 51 -52 28 -22 63 -52
76 -69 32 -38 129 -225 123 -235 -3 -5 -13 -6 -23 -3 -11 2 -32 -6 -49 -21
-48 -41 -103 -31 -103 19 0 11 -6 36 -13 55 -32 87 -60 120 -189 214 -42 31
-91 71 -108 89 -38 40 -70 108 -70 147 0 44 -26 100 -47 101 -10 1 -36 2 -58
3 l-40 1 -5 50 c-6 63 -35 109 -111 179 -75 70 -116 93 -140 78 -14 -9 -22 -4
-45 31 -23 35 -28 55 -32 125 -5 87 -17 109 -40 74 -8 -12 -20 -22 -27 -22
-17 0 -25 23 -14 41 17 27 10 107 -15 162 -27 59 -95 155 -163 231 -68 76 -69
82 -28 102 19 9 35 17 35 18 0 1 -24 27 -53 57 -54 56 -93 127 -188 347 -8 17
-17 32 -22 32 -17 0 -28 -57 -22 -108 10 -79 33 -138 130 -332 63 -126 88
-187 89 -216 2 -46 10 -59 106 -189 37 -49 90 -133 117 -185 157 -297 174
-333 161 -341 -7 -5 -11 -24 -9 -52 2 -43 -15 -74 -38 -65 -19 7 -349 309
-436 400 -100 104 -125 133 -162 196 l-26 43 19 35 c24 44 31 49 50 33 34 -28
45 52 20 145 -11 44 -16 50 -42 53 -17 2 -40 16 -55 33 -30 35 -64 39 -79 10
-15 -28 -27 -18 -57 48 -14 32 -36 72 -50 90 -23 31 -87 203 -133 362 -12 41
-26 86 -30 100 -5 14 -23 72 -40 130 -83 277 -126 411 -160 495 -4 11 -23 58
-41 105 -18 47 -56 131 -85 188 l-52 103 10 67 c24 166 -22 549 -93 762 -19
58 -20 72 -10 126 30 165 -3 624 -44 624 -22 0 -29 -40 -27 -155 2 -95 0 -114
-18 -142 -11 -18 -23 -33 -28 -33 -21 0 -37 162 -37 380 1 207 5 272 37 550 5
52 13 189 17 305 l6 209 33 7 c42 9 46 13 33 37 -11 20 -6 64 23 197 18 79 20
125 7 125 -10 0 -98 -178 -130 -265 -13 -33 -27 -70 -31 -82 -5 -12 -12 -44
-16 -71 -8 -62 -11 -67 -54 -84 l-35 -14 0 -280 c0 -234 -3 -291 -18 -354 -24
-100 -29 -107 -62 -92 -53 24 -52 25 -85 -158 -22 -122 -32 -161 -42 -158 -24
8 -58 168 -78 373 -8 76 -10 305 -5 735 6 592 7 625 24 632 20 7 46 41 76 101
42 82 63 74 47 -17 -7 -35 -12 -110 -12 -167 0 -86 4 -110 20 -136 11 -18 24
-33 29 -33 5 0 12 26 16 58 23 222 70 557 95 692 5 25 14 77 20 115 7 39 16
88 20 110 5 22 14 67 20 100 99 511 310 1199 491 1603 10 23 28 62 39 87 11
25 30 66 41 93 169 376 455 865 708 1205 118 160 322 407 374 456 24 22 27 22
33 7 6 -15 -1 -193 -9 -227 -1 -7 3 -13 8 -14 14 -4 120 119 319 370 407 513
505 624 666 759 126 106 179 141 193 127 19 -19 -21 -77 -100 -149 -87 -78
-98 -111 -15 -48 72 56 130 78 264 101 60 10 115 23 124 30 23 17 9 35 -27 35
-73 0 -90 41 -33 79 19 14 78 64 131 113 71 66 101 88 116 84 18 -4 32 0 105
31 18 8 72 44 120 80 102 77 150 106 163 98 5 -4 -16 -29 -46 -57 -51 -46 -95
-110 -95 -138 0 -15 76 -2 127 22 47 22 58 43 54 107 -3 53 9 62 57 45 41 -15
79 -17 134 -8 27 5 38 12 42 30 4 13 20 39 37 59 25 28 29 40 24 64 -6 26 -2
32 25 46 19 10 42 14 58 10 19 -4 46 4 90 25 34 16 64 30 67 30 2 0 28 11 57
24 29 13 100 43 158 66 58 23 121 48 140 57 48 21 69 29 110 43 19 7 44 16 55
20 11 4 46 17 78 29 31 12 81 30 110 40 244 91 309 108 465 120 237 20 368 52
459 114 41 28 42 39 1 35 -17 -2 -33 2 -35 8 -6 19 57 22 99 6 34 -13 38 -19
33 -39 -3 -14 -1 -23 7 -23 6 0 19 -7 28 -15 16 -15 20 -13 45 17 26 31 33 33
149 49 66 10 148 18 182 18 33 1 99 6 145 11 155 19 149 17 149 51 0 16 6 31
13 33 6 2 29 9 49 15 21 7 44 9 50 4 15 -8 98 -16 172 -15 l48 1 -7 -46 -7
-46 67 7 c74 8 125 28 125 51 0 8 -4 15 -10 15 -23 0 -7 18 33 37 52 25 54 26
79 12z m1061 -54 c134 -32 183 -75 87 -75 -64 0 -224 73 -203 93 9 9 4 10 116
-18z m-2583 -125 c0 -5 -7 -10 -15 -10 -8 0 -15 5 -15 10 0 6 7 10 15 10 8 0
15 -4 15 -10z m-2006 -646 c0 -5 -9 -28 -20 -51 -14 -32 -25 -43 -41 -43 -13
0 -23 5 -23 10 0 6 -15 10 -34 10 -57 0 -50 16 27 54 69 34 93 40 91 20z
m-2035 -11641 c41 -89 214 -313 242 -313 4 0 9 12 11 26 4 37 32 54 53 33 13
-13 14 -23 5 -60 -7 -24 -17 -66 -23 -92 l-11 -48 174 -174 c96 -96 169 -175
162 -175 -23 0 -318 194 -417 274 -147 118 -305 277 -305 306 0 30 78 -1 138
-54 48 -43 113 -86 129 -86 7 0 -13 26 -45 58 -57 59 -90 117 -112 202 -6 25
-16 59 -21 76 -17 58 -3 77 20 27z m805 -1313 c41 -22 151 -60 177 -60 11 0
20 10 24 29 3 16 13 35 21 42 17 14 22 10 196 -151 116 -107 376 -321 458
-377 73 -49 158 -99 345 -200 101 -55 616 -312 755 -377 58 -27 146 -68 195
-91 84 -40 123 -58 288 -134 34 -16 79 -36 100 -46 36 -17 49 -46 27 -60 -5
-3 -10 -15 -10 -26 0 -27 40 -40 117 -37 61 3 67 1 86 -25 32 -41 13 -52 -88
-51 -99 1 -146 13 -285 72 -177 75 -232 92 -315 99 -73 6 -84 9 -130 46 -95
75 -281 179 -480 267 -137 61 -326 157 -376 191 -31 21 -73 57 -93 80 -22 27
-55 50 -90 64 -56 23 -140 79 -256 170 -93 74 -213 153 -265 175 -45 19 -56
34 -32 43 9 3 7 13 -7 41 -22 42 -28 43 -68 15 -16 -12 -43 -22 -60 -23 -29
-1 -32 2 -44 46 -23 91 -97 183 -207 258 -59 40 -46 56 17 20z"/>
<path d="M16471 14843 c2 -4 20 -30 39 -56 30 -42 35 -46 38 -28 5 31 -30 85
-57 89 -13 2 -22 0 -20 -5z"/>
<path d="M16555 14720 c3 -5 8 -10 11 -10 2 0 4 5 4 10 0 6 -5 10 -11 10 -5 0
-7 -4 -4 -10z"/>
<path d="M12660 11860 l0 -1130 305 0 305 0 -2 1128 -3 1127 -302 3 -303 2 0
-1130z"/>
<path d="M13422 11858 l3 -1123 275 -3 c151 -1 285 0 298 3 l22 5 0 1120 0
1120 -300 0 -300 0 2 -1122z"/>
<path d="M5462 12650 c-151 -40 -271 -129 -327 -244 -23 -48 -30 -76 -33 -145
-7 -149 39 -251 153 -338 80 -61 174 -104 371 -168 180 -58 235 -86 282 -139
92 -105 56 -269 -73 -332 -99 -48 -271 -45 -409 7 -89 33 -99 48 -114 159 -20
142 -8 130 -122 130 -80 0 -99 -3 -104 -16 -3 -9 -6 -87 -6 -175 0 -187 -5
-178 125 -243 114 -56 215 -84 345 -95 367 -33 624 103 671 355 27 145 -23
292 -131 386 -77 68 -187 121 -390 188 -271 89 -330 136 -330 264 0 98 58 171
164 206 61 20 215 15 294 -10 106 -34 112 -40 131 -161 l17 -104 102 -3 102
-3 0 169 0 169 -38 25 c-88 59 -188 100 -302 124 -95 21 -288 17 -378 -6z"/>
<path d="M6390 12570 c0 -56 4 -82 13 -84 6 -2 45 -10 85 -17 l72 -12 0 -598
0 -598 -57 -11 c-32 -6 -70 -13 -85 -16 -28 -6 -28 -6 -28 -85 l0 -79 310 0
310 0 0 69 c0 76 -13 101 -55 101 -13 0 -46 5 -74 12 l-51 12 2 240 3 241 340
3 c311 2 341 1 353 -15 14 -20 17 -439 3 -461 -4 -7 -39 -19 -77 -25 -38 -7
-75 -16 -81 -20 -9 -5 -13 -34 -13 -83 l0 -74 305 0 305 0 0 80 c0 75 -1 80
-22 84 -13 2 -50 10 -83 17 l-60 14 0 595 0 594 35 8 c19 5 55 12 80 16 l45 7
5 78 c3 44 3 81 1 83 -2 2 -141 4 -308 4 l-303 0 0 -80 c0 -56 4 -82 13 -84 6
-2 44 -10 84 -16 58 -11 72 -17 77 -34 3 -12 6 -121 6 -242 0 -175 -3 -224
-14 -233 -9 -8 -110 -11 -352 -9 l-339 3 0 249 0 250 50 13 c28 7 62 13 77 13
37 0 48 25 48 104 l0 66 -310 0 -310 0 0 -80z"/>
<path d="M8132 12568 l3 -83 50 -7 c28 -4 64 -11 80 -16 l30 -8 3 -596 2 -595
-52 -11 c-29 -6 -68 -14 -85 -17 l-33 -7 0 -79 0 -79 615 0 615 0 0 200 0 201
-102 -3 -103 -3 -10 -95 -10 -95 -280 0 -280 0 -3 252 -2 253 277 2 278 3 0
100 0 100 -277 3 -278 2 0 224 c0 195 2 225 16 230 24 9 497 7 512 -3 8 -5 15
-41 19 -99 l6 -92 103 0 104 0 0 200 0 200 -600 0 -601 0 3 -82z"/>
<path d="M9559 12646 c-2 -2 -2 -39 1 -83 l5 -78 50 -7 c28 -4 64 -11 80 -16
l30 -8 3 -596 2 -596 -50 -11 c-28 -6 -59 -11 -70 -11 -45 0 -50 -9 -50 -91
l0 -79 305 0 305 0 0 79 c0 79 0 79 -27 85 -16 3 -54 10 -85 16 l-58 11 0 235
0 234 159 0 159 0 17 -42 c56 -144 248 -604 254 -610 3 -4 78 -8 166 -9 l160
-1 0 83 0 84 -50 8 c-27 4 -55 13 -61 18 -7 5 -51 98 -99 207 -49 108 -98 219
-111 246 -13 28 -24 53 -24 57 0 4 24 19 53 34 78 40 143 109 185 195 37 74
37 76 36 195 -1 122 -6 146 -52 231 -31 61 -124 138 -201 169 -124 50 -179 55
-620 55 -224 0 -410 -2 -412 -4z m860 -218 c115 -39 181 -156 160 -287 -10
-63 -29 -101 -73 -139 -58 -51 -115 -62 -323 -62 l-183 0 0 250 0 250 192 0
c122 0 204 -4 227 -12z"/>
<path d="M11125 12478 c-4 -95 -5 -186 -4 -203 l4 -30 100 0 100 0 7 40 c4 22
10 66 13 98 l6 57 270 0 c148 0 269 -3 269 -6 0 -7 -106 -166 -513 -771 l-277
-411 0 -91 0 -91 580 0 580 0 -2 208 -3 207 -92 3 c-110 3 -107 5 -116 -117
-4 -51 -12 -88 -19 -93 -18 -11 -585 -10 -593 1 -3 5 76 130 175 278 100 147
278 412 396 589 l214 320 0 92 0 92 -544 0 -544 0 -7 -172z"/>
<path d="M3895 7330 c-3 -5 -15 -10 -26 -10 -28 0 -24 -11 24 -57 66 -64 159
-107 142 -65 -4 9 -11 32 -15 51 -11 45 -57 91 -91 91 -15 0 -31 -4 -34 -10z"/>
</g>
</svg>
